<svg enable-background="new 0 0 64 64" height="512" viewBox="0 0 64 64" width="512" xmlns="http://www.w3.org/2000/svg"><g id="Icons"><g><g><path d="m32 58c-14.359 0-26-11.641-26-26 0-14.359 11.641-26 26-26 14.359 0 26 11.641 26 26 0 14.359-11.641 26-26 26z" fill="#fab400"/></g><g><path d="m10 32c0-13.686 10.576-24.894 24-25.916-.661-.05-1.326-.084-2-.084-14.359 0-26 11.641-26 26 0 14.359 11.641 26 26 26 .674 0 1.339-.034 2-.084-13.424-1.022-24-12.23-24-25.916z" fill="#dc9600"/></g><g><path d="m18 20h28v4h-28z" fill="#f0f0f0"/></g><g><path d="m18 30h28v4h-28z" fill="#f0f0f0"/></g><g><path d="m18 40h28v4h-28z" fill="#f0f0f0"/></g></g></g></svg>